<svg xmlns="http://www.w3.org/2000/svg" viewBox="0 0 512 512" role="img" aria-label="NASA logo">
  <circle cx="256" cy="256" r="256" fill="#0b3d91" />
  <path d="M376.9 198.7c-3.9 9.3-15.5 29.7-35.8 37.8s-42.4-5.7-48.2-16c-5.8-10.2-3.9-27.6-6.8-35.3s-9.6-13.6-23.3-18.9c-21.4-7.9-49.4-2.2-58.6 3.1s-21.3 15.4-36.4 15.4c-9.3 0-14.6-3.5-16.2-6.5-1.5-2.7-.2-5.3-.1-6 .3-2 1.7-4.5 3.5-6.5 11.2-12.2 42.1-15.2 60.2-11.4 18.5 3.9 40.4 14.3 59.2 13.4 19.5-.9 29.6-9.4 37.1-20.7s11.1-21.3 25.4-23.8 39.7 12.1 47.3 32.2 1.8 33.9-11.8 58.4z" fill="#fff" />
  <path d="M154.5 251.3c-20.1 0-36.4 16.3-36.4 36.4s16.3 36.4 36.4 36.4 36.4-16.3 36.4-36.4-16.4-36.4-36.4-36.4zm186.8 59.6c-13.8-5.1-30.5-5.5-49.6-.9-12.7 3.1-26.8 10.8-35.8 13.6-18.4 5.7-41.2 3.8-65.8-8.6-24.6-12.5-44.2-30.6-52.3-52.7-8.3-22.5-4.4-46.2 5.5-66.7 10-20.7 25.6-36.7 43.4-44.9 17.8-8.2 36.8-9.7 54.4-7.6 17.6 2.1 33.8 8.4 47.1 14.6 13.4 6.3 24.6 13.4 34.2 24.7 9.6 11.3 14.7 25.7 14.3 41.6-.5 15.9-8.2 31.7-23.1 43.8-14.9 12.2-34.2 16.4-55.7 15.8-21.6-.6-45-6.3-65.8-12.5-20.8-6.2-39.1-12.7-58.1-19.3-8.8-3.1-16.7-6.2-23.6-9.5-5.7-2.8-10.4-5.7-14-8.6-3.6-2.9-6.1-5.9-7.6-9.2-1.4-3.3-1.8-6.8-.9-10.5.9-3.7 3-6.8 6.5-9.5 3.5-2.7 8.3-4.6 13.6-6.4 5.2-1.7 10.9-2.6 16.9-2.6 6.1 0 12.3.9 18.6 2.7 12.7 3.5 24.9 9.8 36.7 16.4s23.3 13.6 35.5 18.3c12.2 4.7 24.8 6.9 38.1 7.3 13.3.3 27.4-1.2 42.7-6.4 15.4-5.2 31.9-13.3 50.1-22.9 18.3-9.6 37.2-21.5 54.8-35.4 17.6-13.8 33.1-29.5 43.6-47 10.5-17.5 16.3-37 16.8-57.6s-6.2-41.2-16.4-56.9c-10.2-15.6-25-27.5-41.6-33.7-16.5-6.3-34.9-6.3-53.8-3.6-19 2.6-38.4 8.8-58.4 15.5s-40.4 14.5-60.2 21.5c-19.9 6.9-39.6 13.9-60.5 20.2-20.8 6.4-42.2 13.3-65.4 20.3-46.3 14-94.5 28.5-142.7 42.9s-94.6 29.7-141.3 42.9" fill="none" stroke="#fff" stroke-width="2.5" stroke-linecap="round" stroke-linejoin="round" />
</svg>
